<svg width="80" height="80" viewBox="0 0 80 80" fill="none" xmlns="http://www.w3.org/2000/svg">
<circle cx="40" cy="40" r="40" fill="#EFF8FF"/>
<g clip-path="url(#clip0_56_1885)">
<path d="M57.9505 22.0495C57.5732 21.6726 57.1024 21.403 56.5865 21.2684C56.0705 21.1338 55.528 21.139 55.0147 21.2836L20.0782 31.1374C19.4904 31.3032 18.9672 31.6444 18.5785 32.1156C18.1898 32.5867 17.9542 33.1652 17.9031 33.7738C17.852 34.3824 17.9879 34.9921 18.2926 35.5214C18.5974 36.0507 19.0564 36.4744 19.6084 36.7359L34.2209 43.6576L44.2113 33.6672C44.4926 33.3859 44.8742 33.2278 45.272 33.2278C45.6699 33.2278 46.0515 33.3859 46.3328 33.6672C46.6141 33.9485 46.7722 34.3301 46.7722 34.7279C46.7722 35.1258 46.6141 35.5073 46.3328 35.7887L36.3424 45.7791L43.2641 60.3916C43.5039 60.9057 43.8858 61.3405 44.3647 61.6446C44.8435 61.9487 45.3995 62.1094 45.9667 62.1077C46.0526 62.1077 46.1391 62.1041 46.2262 62.0969C46.8359 62.0492 47.4161 61.8148 47.8878 61.4256C48.3596 61.0364 48.6999 60.5113 48.8626 59.9218L58.7164 24.9852C58.8608 24.472 58.866 23.9295 58.7314 23.4136C58.5968 22.8976 58.3272 22.4268 57.9505 22.0495Z" fill="#175CD3"/>
</g>
<defs>
<clipPath id="clip0_56_1885">
<rect width="48" height="48" fill="white" transform="translate(16 16)"/>
</clipPath>
</defs>
</svg>
